ffmpeg started on 2025-07-16 at 17:11:33
Report written to "D:\Convert\FFMetrics\reports\ssim_report-6.txt"
Log level: 32
Command line:
ffmpeg -hide_banner -nostdin -i "G:\\\xc0\xed\xe8\xec\xe5\\Shiza\\\xcb\xe5\xe3\xe5\xed\xe4\xe0 \xee \xc3\xf0\xe0\xed\xea\xf0\xe5\xf1\xf2\xe5\\[SHIZA Project] Grancrest Senki TV [17] [nDrOiDze & Lizaveta]_HEVC.mkv" -i "G:\\\xc0\xed\xe8\xec\xe5\\Shiza\\\xcb\xe5\xe3\xe5\xed\xe4\xe0 \xee \xc3\xf0\xe0\xed\xea\xf0\xe5\xf1\xf2\xe5\\[SHIZA Project] Grancrest Senki TV [17] [nDrOiDze & Lizaveta].mkv" -lavfi "[0:v]settb=AVTB,setpts=PTS-STARTPTS,format=pix_fmts=yuv420p10,fps=24000/1001,scale=1280:720:flags=bicubic[main];[1:v]settb=AVTB,setpts=PTS-STARTPTS,format=pix_fmts=yuv420p,fps=24000/1001,scale=1280:720:flags=bicubic[ref];[main][ref]ssim=eof_action=endall:stats_file='D\\:/Convert/FFMetrics/logs/ssim_logfile-6.txt'" -f null -
Input #0, matroska,webm, from 'G:\Аниме\Shiza\Легенда о Гранкресте\[SHIZA Project] Grancrest Senki TV [17] [nDrOiDze & Lizaveta]_HEVC.mkv':
  Metadata:
    ENCODER         : Lavf61.7.100
  Duration: 00:23:41.06, start: -0.021000, bitrate: 799 kb/s
  Stream #0:0(jpn): Video: hevc (Main 10), yuv420p10le(tv, bt709, progressive), 1280x720 [SAR 1:1 DAR 16:9], 23.81 fps, 23.81 tbr, 1k tbn (default)
      Metadata:
        title           : [SHIZA Project] Grancrest Senki TV [WEBRip]
        ENCODER         : Lavc61.19.100 libx265
        BPS             : 600766
        DURATION        : 00:23:40.020000000
        NUMBER_OF_FRAMES: 34047
        NUMBER_OF_BYTES : 106637476
        _STATISTICS_WRITING_APP: mkvpropedit v66.0.0 ('Josie') 64-bit
        _STATISTICS_WRITING_DATE_UTC: 2025-07-16 10:39:37
        _STATISTICS_TAGS: BPS DURATION NUMBER_OF_FRAMES NUMBER_OF_BYTES
  Stream #0:1(rus): Audio: aac (LC), 48000 Hz, stereo, fltp (default)
      Metadata:
        title           : nDrOiDze & Lizaveta
        ENCODER         : Lavc61.19.100 aac
        BPS             : 194931
        DURATION        : 00:23:41.034000000
        NUMBER_OF_FRAMES: 66612
        NUMBER_OF_BYTES : 34625470
        _STATISTICS_WRITING_APP: mkvpropedit v66.0.0 ('Josie') 64-bit
        _STATISTICS_WRITING_DATE_UTC: 2025-07-16 10:39:37
        _STATISTICS_TAGS: BPS DURATION NUMBER_OF_FRAMES NUMBER_OF_BYTES
Input #1, matroska,webm, from 'G:\Аниме\Shiza\Легенда о Гранкресте\[SHIZA Project] Grancrest Senki TV [17] [nDrOiDze & Lizaveta].mkv':
  Metadata:
    encoder         : libebml v1.3.4 + libmatroska v1.4.5
    creation_time   : 2018-05-17T20:47:53.000000Z
  Duration: 00:23:41.03, start: 0.000000, bitrate: 1968 kb/s
  Stream #1:0(jpn): Video: h264 (High), yuv420p(progressive), 1280x720 [SAR 1:1 DAR 16:9], 23.81 fps, 23.81 tbr, 1k tbn (default)
      Metadata:
        title           : [SHIZA Project] Grancrest Senki TV [WEBRip]
        BPS             : 1770302
        BPS-eng         : 1770302
        DURATION        : 00:23:40.003000000
        DURATION-eng    : 00:23:40.003000000
        NUMBER_OF_FRAMES: 34047
        NUMBER_OF_FRAMES-eng: 34047
        NUMBER_OF_BYTES : 314229344
        NUMBER_OF_BYTES-eng: 314229344
        _STATISTICS_WRITING_APP: mkvmerge v10.0.0 ('To Drown In You') 64bit
        _STATISTICS_WRITING_APP-eng: mkvmerge v10.0.0 ('To Drown In You') 64bit
        _STATISTICS_WRITING_DATE_UTC: 2018-05-17 20:47:53
        _STATISTICS_WRITING_DATE_UTC-eng: 2018-05-17 20:47:53
        _STATISTICS_TAGS: BPS DURATION NUMBER_OF_FRAMES NUMBER_OF_BYTES
        _STATISTICS_TAGS-eng: BPS DURATION NUMBER_OF_FRAMES NUMBER_OF_BYTES
  Stream #1:1(rus): Audio: aac (LC), 48000 Hz, stereo, fltp (default)
      Metadata:
        title           : nDrOiDze & Lizaveta
        BPS             : 195227
        BPS-eng         : 195227
        DURATION        : 00:23:41.034000000
        DURATION-eng    : 00:23:41.034000000
        NUMBER_OF_FRAMES: 66611
        NUMBER_OF_FRAMES-eng: 66611
        NUMBER_OF_BYTES : 34678158
        NUMBER_OF_BYTES-eng: 34678158
        _STATISTICS_WRITING_APP: mkvmerge v10.0.0 ('To Drown In You') 64bit
        _STATISTICS_WRITING_APP-eng: mkvmerge v10.0.0 ('To Drown In You') 64bit
        _STATISTICS_WRITING_DATE_UTC: 2018-05-17 20:47:53
        _STATISTICS_WRITING_DATE_UTC-eng: 2018-05-17 20:47:53
        _STATISTICS_TAGS: BPS DURATION NUMBER_OF_FRAMES NUMBER_OF_BYTES
        _STATISTICS_TAGS-eng: BPS DURATION NUMBER_OF_FRAMES NUMBER_OF_BYTES
  Stream #1:2: Attachment: ttf
      Metadata:
        filename        : OpenSans-Semibold.ttf
        mimetype        : application/x-truetype-font
Stream mapping:
  Stream #0:0 (hevc) -> settb:default
  Stream #1:0 (h264) -> settb:default
  ssim:default -> Stream #0:0 (wrapped_avframe)
  Stream #0:1 -> #0:1 (aac (native) -> pcm_s16le (native))
[swscaler @ 0000014d66576880] No accelerated colorspace conversion found from yuv420p to bgr48le.
[swscaler @ 0000014d66669600] No accelerated colorspace conversion found from yuv420p to bgr48le.
[swscaler @ 0000014d667c88c0] No accelerated colorspace conversion found from yuv420p to bgr48le.
[swscaler @ 0000014d668febc0] No accelerated colorspace conversion found from yuv420p to bgr48le.
[swscaler @ 0000014d66953bc0] No accelerated colorspace conversion found from yuv420p to bgr48le.
[swscaler @ 0000014d66b588c0] No accelerated colorspace conversion found from yuv420p to bgr48le.
[swscaler @ 0000014d66d82b00] No accelerated colorspace conversion found from yuv420p to bgr48le.
[swscaler @ 0000014d66de1040] No accelerated colorspace conversion found from yuv420p to bgr48le.
[swscaler @ 0000014d66eda040] No accelerated colorspace conversion found from yuv420p to bgr48le.
[swscaler @ 0000014d66f39040] No accelerated colorspace conversion found from yuv420p to bgr48le.
[swscaler @ 0000014d66f9e040] No accelerated colorspace conversion found from yuv420p to bgr48le.
[swscaler @ 0000014d67019040] No accelerated colorspace conversion found from yuv420p to bgr48le.
[swscaler @ 0000014d67082040] No accelerated colorspace conversion found from yuv420p to bgr48le.
[swscaler @ 0000014d670a7e80] No accelerated colorspace conversion found from yuv420p to bgr48le.
[swscaler @ 0000014d6710b040] No accelerated colorspace conversion found from yuv420p to bgr48le.
[swscaler @ 0000014d67197040] No accelerated colorspace conversion found from yuv420p to bgr48le.
Output #0, null, to 'pipe:':
  Metadata:
    encoder         : Lavf61.7.100
  Stream #0:0: Video: wrapped_avframe, yuv420p10le(tv, bt709, progressive), 1280x720 [SAR 1:1 DAR 16:9], q=2-31, 200 kb/s, 23.98 fps, 23.98 tbn
      Metadata:
        encoder         : Lavc61.19.100 wrapped_avframe
  Stream #0:1(rus): Audio: pcm_s16le, 48000 Hz, stereo, s16, 1536 kb/s (default)
      Metadata:
        title           : nDrOiDze & Lizaveta
        _STATISTICS_TAGS: BPS DURATION NUMBER_OF_FRAMES NUMBER_OF_BYTES
        BPS             : 194931
        DURATION        : 00:23:41.034000000
        NUMBER_OF_FRAMES: 66612
        NUMBER_OF_BYTES : 34625470
        _STATISTICS_WRITING_APP: mkvpropedit v66.0.0 ('Josie') 64-bit
        _STATISTICS_WRITING_DATE_UTC: 2025-07-16 10:39:37
        encoder         : Lavc61.19.100 pcm_s16le
frame=   82 fps=0.0 q=-0.0 size=N/A time=00:00:03.42 bitrate=N/A speed=6.61x    frame=  178 fps=174 q=-0.0 size=N/A time=00:00:07.42 bitrate=N/A speed=7.24x    frame=  274 fps=177 q=-0.0 size=N/A time=00:00:11.42 bitrate=N/A speed=7.39x    frame=  373 fps=181 q=-0.0 size=N/A time=00:00:15.55 bitrate=N/A speed=7.57x    frame=  473 fps=183 q=-0.0 size=N/A time=00:00:19.72 bitrate=N/A speed=7.65x    frame=  565 fps=182 q=-0.0 size=N/A time=00:00:23.56 bitrate=N/A speed=7.61x    frame=  659 fps=183 q=-0.0 size=N/A time=00:00:27.48 bitrate=N/A speed=7.62x    frame=  764 fps=185 q=-0.0 size=N/A time=00:00:31.86 bitrate=N/A speed=7.72x    frame=  858 fps=185 q=-0.0 size=N/A time=00:00:35.78 bitrate=N/A speed=7.72x    frame=  956 fps=185 q=-0.0 size=N/A time=00:00:39.87 bitrate=N/A speed=7.73x    frame= 1050 fps=185 q=-0.0 size=N/A time=00:00:43.79 bitrate=N/A speed=7.73x    frame= 1150 fps=186 q=-0.0 size=N/A time=00:00:47.96 bitrate=N/A speed=7.75x    frame= 1248 fps=186 q=-0.0 size=N/A time=00:00:52.05 bitrate=N/A speed=7.77x    frame= 1347 fps=187 q=-0.0 size=N/A time=00:00:56.18 bitrate=N/A speed=7.78x    frame= 1440 fps=186 q=-0.0 size=N/A time=00:01:00.06 bitrate=N/A speed=7.77x    frame= 1540 fps=187 q=-0.0 size=N/A time=00:01:04.23 bitrate=N/A speed=7.78x    frame= 1637 fps=187 q=-0.0 size=N/A time=00:01:08.27 bitrate=N/A speed=7.79x    frame= 1736 fps=187 q=-0.0 size=N/A time=00:01:12.40 bitrate=N/A speed= 7.8x    frame= 1828 fps=187 q=-0.0 size=N/A time=00:01:16.24 bitrate=N/A speed=7.79x    frame= 1923 fps=187 q=-0.0 size=N/A time=00:01:20.20 bitrate=N/A speed=7.78x    frame= 2030 fps=187 q=-0.0 size=N/A time=00:01:24.66 bitrate=N/A speed=7.82x    frame= 2128 fps=188 q=-0.0 size=N/A time=00:01:28.75 bitrate=N/A speed=7.83x    frame= 2226 fps=188 q=-0.0 size=N/A time=00:01:32.84 bitrate=N/A speed=7.83x    frame= 2319 fps=187 q=-0.0 size=N/A time=00:01:36.72 bitrate=N/A speed=7.82x    frame= 2412 fps=187 q=-0.0 size=N/A time=00:01:40.60 bitrate=N/A speed= 7.8x    frame= 2518 fps=188 q=-0.0 size=N/A time=00:01:45.02 bitrate=N/A speed=7.83x    frame= 2619 fps=188 q=-0.0 size=N/A time=00:01:49.23 bitrate=N/A speed=7.84x    frame= 2712 fps=188 q=-0.0 size=N/A time=00:01:53.11 bitrate=N/A speed=7.83x    frame= 2811 fps=188 q=-0.0 size=N/A time=00:01:57.24 bitrate=N/A speed=7.84x    frame= 2912 fps=188 q=-0.0 size=N/A time=00:02:01.45 bitrate=N/A speed=7.84x    frame= 3010 fps=188 q=-0.0 size=N/A time=00:02:05.54 bitrate=N/A speed=7.85x    frame= 3107 fps=188 q=-0.0 size=N/A time=00:02:09.58 bitrate=N/A speed=7.85x    frame= 3197 fps=188 q=-0.0 size=N/A time=00:02:13.34 bitrate=N/A speed=7.83x    frame= 3303 fps=188 q=-0.0 size=N/A time=00:02:17.76 bitrate=N/A speed=7.85x    frame= 3402 fps=188 q=-0.0 size=N/A time=00:02:21.89 bitrate=N/A speed=7.85x    frame= 3499 fps=188 q=-0.0 size=N/A time=00:02:25.93 bitrate=N/A speed=7.86x    frame= 3596 fps=188 q=-0.0 size=N/A time=00:02:29.98 bitrate=N/A speed=7.85x    frame= 3686 fps=188 q=-0.0 size=N/A time=00:02:33.73 bitrate=N/A speed=7.84x    frame= 3784 fps=188 q=-0.0 size=N/A time=00:02:37.82 bitrate=N/A speed=7.84x    frame= 3869 fps=187 q=-0.0 size=N/A time=00:02:41.36 bitrate=N/A speed=7.82x    frame= 3977 fps=188 q=-0.0 size=N/A time=00:02:45.87 bitrate=N/A speed=7.84x    frame= 4071 fps=188 q=-0.0 size=N/A time=00:02:49.79 bitrate=N/A speed=7.84x    frame= 4165 fps=188 q=-0.0 size=N/A time=00:02:53.71 bitrate=N/A speed=7.83x    frame= 4251 fps=187 q=-0.0 size=N/A time=00:02:57.30 bitrate=N/A speed=7.81x    frame= 4344 fps=187 q=-0.0 size=N/A time=00:03:01.18 bitrate=N/A speed= 7.8x    frame= 4439 fps=187 q=-0.0 size=N/A time=00:03:05.14 bitrate=N/A speed= 7.8x    frame= 4533 fps=187 q=-0.0 size=N/A time=00:03:09.06 bitrate=N/A speed=7.79x    frame= 4626 fps=187 q=-0.0 size=N/A time=00:03:12.94 bitrate=N/A speed=7.79x    frame= 4717 fps=187 q=-0.0 size=N/A time=00:03:16.73 bitrate=N/A speed=7.78x    frame= 4804 fps=186 q=-0.0 size=N/A time=00:03:20.36 bitrate=N/A speed=7.77x    frame= 4902 fps=186 q=-0.0 size=N/A time=00:03:24.45 bitrate=N/A speed=7.77x    frame= 4996 fps=186 q=-0.0 size=N/A time=00:03:28.37 bitrate=N/A speed=7.77x    frame= 5084 fps=186 q=-0.0 size=N/A time=00:03:32.04 bitrate=N/A speed=7.76x    frame= 5173 fps=186 q=-0.0 size=N/A time=00:03:35.75 bitrate=N/A speed=7.74x    frame= 5265 fps=186 q=-0.0 size=N/A time=00:03:39.59 bitrate=N/A speed=7.74x    frame= 5355 fps=185 q=-0.0 size=N/A time=00:03:43.34 bitrate=N/A speed=7.73x    frame= 5446 fps=185 q=-0.0 size=N/A time=00:03:47.14 bitrate=N/A speed=7.72x    frame= 5542 fps=185 q=-0.0 size=N/A time=00:03:51.14 bitrate=N/A speed=7.72x    frame= 5638 fps=185 q=-0.0 size=N/A time=00:03:55.15 bitrate=N/A speed=7.73x    frame= 5728 fps=185 q=-0.0 size=N/A time=00:03:58.90 bitrate=N/A speed=7.72x    frame= 5827 fps=185 q=-0.0 size=N/A time=00:04:03.03 bitrate=N/A speed=7.72x    frame= 5920 fps=185 q=-0.0 size=N/A time=00:04:06.91 bitrate=N/A speed=7.72x    frame= 6002 fps=185 q=-0.0 size=N/A time=00:04:10.33 bitrate=N/A speed= 7.7x    frame= 6106 fps=185 q=-0.0 size=N/A time=00:04:14.67 bitrate=N/A speed=7.71x    frame= 6194 fps=185 q=-0.0 size=N/A time=00:04:18.34 bitrate=N/A speed=7.71x    frame= 6293 fps=185 q=-0.0 size=N/A time=00:04:22.47 bitrate=N/A speed=7.71x    frame= 6389 fps=185 q=-0.0 size=N/A time=00:04:26.47 bitrate=N/A speed=7.71x    frame= 6483 fps=185 q=-0.0 size=N/A time=00:04:30.39 bitrate=N/A speed=7.71x    frame= 6577 fps=185 q=-0.0 size=N/A time=00:04:34.31 bitrate=N/A speed=7.71x    frame= 6667 fps=185 q=-0.0 size=N/A time=00:04:38.06 bitrate=N/A speed= 7.7x    frame= 6768 fps=185 q=-0.0 size=N/A time=00:04:42.28 bitrate=N/A speed=7.71x    frame= 6862 fps=185 q=-0.0 size=N/A time=00:04:46.20 bitrate=N/A speed=7.71x    frame= 6956 fps=185 q=-0.0 size=N/A time=00:04:50.12 bitrate=N/A speed= 7.7x    frame= 7051 fps=185 q=-0.0 size=N/A time=00:04:54.08 bitrate=N/A speed= 7.7x    frame= 7146 fps=185 q=-0.0 size=N/A time=00:04:58.04 bitrate=N/A speed= 7.7x    frame= 7232 fps=184 q=-0.0 size=N/A time=00:05:01.63 bitrate=N/A speed=7.69x    frame= 7336 fps=185 q=-0.0 size=N/A time=00:05:05.97 bitrate=N/A speed= 7.7x    frame= 7422 fps=184 q=-0.0 size=N/A time=00:05:09.55 bitrate=N/A speed=7.69x    frame= 7515 fps=184 q=-0.0 size=N/A time=00:05:13.43 bitrate=N/A speed=7.69x    frame= 7605 fps=184 q=-0.0 size=N/A time=00:05:17.19 bitrate=N/A speed=7.69x    frame= 7695 fps=184 q=-0.0 size=N/A time=00:05:20.94 bitrate=N/A speed=7.68x    frame= 7801 fps=184 q=-0.0 size=N/A time=00:05:25.36 bitrate=N/A speed=7.69x    frame= 7890 fps=184 q=-0.0 size=N/A time=00:05:29.07 bitrate=N/A speed=7.69x    frame= 7987 fps=184 q=-0.0 size=N/A time=00:05:33.12 bitrate=N/A speed=7.69x    frame= 8079 fps=184 q=-0.0 size=N/A time=00:05:36.96 bitrate=N/A speed=7.69x    frame= 8164 fps=184 q=-0.0 size=N/A time=00:05:40.50 bitrate=N/A speed=7.68x    frame= 8254 fps=184 q=-0.0 size=N/A time=00:05:44.26 bitrate=N/A speed=7.67x    frame= 8357 fps=184 q=-0.0 size=N/A time=00:05:48.55 bitrate=N/A speed=7.68x    frame= 8444 fps=184 q=-0.0 size=N/A time=00:05:52.18 bitrate=N/A speed=7.67x    frame= 8551 fps=184 q=-0.0 size=N/A time=00:05:56.64 bitrate=N/A speed=7.68x    frame= 8639 fps=184 q=-0.0 size=N/A time=00:06:00.31 bitrate=N/A speed=7.68x    frame= 8741 fps=184 q=-0.0 size=N/A time=00:06:04.57 bitrate=N/A speed=7.68x    frame= 8834 fps=184 q=-0.0 size=N/A time=00:06:08.45 bitrate=N/A speed=7.68x    frame= 8929 fps=184 q=-0.0 size=N/A time=00:06:12.41 bitrate=N/A speed=7.68x    frame= 9023 fps=184 q=-0.0 size=N/A time=00:06:16.33 bitrate=N/A speed=7.68x    frame= 9117 fps=184 q=-0.0 size=N/A time=00:06:20.25 bitrate=N/A speed=7.68x    frame= 9209 fps=184 q=-0.0 size=N/A time=00:06:24.09 bitrate=N/A speed=7.68x    frame= 9303 fps=184 q=-0.0 size=N/A time=00:06:28.01 bitrate=N/A speed=7.68x    frame= 9397 fps=184 q=-0.0 size=N/A time=00:06:31.93 bitrate=N/A speed=7.68x    frame= 9490 fps=184 q=-0.0 size=N/A time=00:06:35.81 bitrate=N/A speed=7.67x    frame= 9589 fps=184 q=-0.0 size=N/A time=00:06:39.94 bitrate=N/A speed=7.68x    frame= 9683 fps=184 q=-0.0 size=N/A time=00:06:43.86 bitrate=N/A speed=7.68x    frame= 9772 fps=184 q=-0.0 size=N/A time=00:06:47.57 bitrate=N/A speed=7.67x    frame= 9871 fps=184 q=-0.0 size=N/A time=00:06:51.70 bitrate=N/A speed=7.67x    frame= 9964 fps=184 q=-0.0 size=N/A time=00:06:55.58 bitrate=N/A speed=7.67x    frame=10052 fps=184 q=-0.0 size=N/A time=00:06:59.25 bitrate=N/A speed=7.67x    frame=10145 fps=184 q=-0.0 size=N/A time=00:07:03.13 bitrate=N/A speed=7.67x    frame=10239 fps=184 q=-0.0 size=N/A time=00:07:07.05 bitrate=N/A speed=7.67x    frame=10329 fps=184 q=-0.0 size=N/A time=00:07:10.80 bitrate=N/A speed=7.66x    frame=10419 fps=184 q=-0.0 size=N/A time=00:07:14.55 bitrate=N/A speed=7.66x    frame=10524 fps=184 q=-0.0 size=N/A time=00:07:18.93 bitrate=N/A speed=7.67x    frame=10615 fps=184 q=-0.0 size=N/A time=00:07:22.73 bitrate=N/A speed=7.66x    frame=10717 fps=184 q=-0.0 size=N/A time=00:07:26.98 bitrate=N/A speed=7.67x    frame=10809 fps=184 q=-0.0 size=N/A time=00:07:30.82 bitrate=N/A speed=7.67x    frame=10904 fps=184 q=-0.0 size=N/A time=00:07:34.78 bitrate=N/A speed=7.67x    frame=10988 fps=184 q=-0.0 size=N/A time=00:07:38.29 bitrate=N/A speed=7.66x    frame=11084 fps=184 q=-0.0 size=N/A time=00:07:42.29 bitrate=N/A speed=7.66x    frame=11190 fps=184 q=-0.0 size=N/A time=00:07:46.71 bitrate=N/A speed=7.67x    frame=11288 fps=184 q=-0.0 size=N/A time=00:07:50.80 bitrate=N/A speed=7.67x    frame=11385 fps=184 q=-0.0 size=N/A time=00:07:54.84 bitrate=N/A speed=7.67x    frame=11471 fps=184 q=-0.0 size=N/A time=00:07:58.43 bitrate=N/A speed=7.67x    frame=11576 fps=184 q=-0.0 size=N/A time=00:08:02.81 bitrate=N/A speed=7.67x    frame=11670 fps=184 q=-0.0 size=N/A time=00:08:06.73 bitrate=N/A speed=7.67x    frame=11767 fps=184 q=-0.0 size=N/A time=00:08:10.78 bitrate=N/A speed=7.67x    frame=11862 fps=184 q=-0.0 size=N/A time=00:08:14.74 bitrate=N/A speed=7.67x    frame=11954 fps=184 q=-0.0 size=N/A time=00:08:18.58 bitrate=N/A speed=7.67x    frame=12043 fps=184 q=-0.0 size=N/A time=00:08:22.29 bitrate=N/A speed=7.67x    frame=12143 fps=184 q=-0.0 size=N/A time=00:08:26.46 bitrate=N/A speed=7.67x    frame=12241 fps=184 q=-0.0 size=N/A time=00:08:30.55 bitrate=N/A speed=7.67x    frame=12328 fps=184 q=-0.0 size=N/A time=00:08:34.18 bitrate=N/A speed=7.67x    frame=12433 fps=184 q=-0.0 size=N/A time=00:08:38.55 bitrate=N/A speed=7.67x    frame=12528 fps=184 q=-0.0 size=N/A time=00:08:42.52 bitrate=N/A speed=7.68x    frame=12614 fps=184 q=-0.0 size=N/A time=00:08:46.10 bitrate=N/A speed=7.67x    frame=12713 fps=184 q=-0.0 size=N/A time=00:08:50.23 bitrate=N/A speed=7.67x    frame=12803 fps=184 q=-0.0 size=N/A time=00:08:53.99 bitrate=N/A speed=7.67x    frame=12902 fps=184 q=-0.0 size=N/A time=00:08:58.12 bitrate=N/A speed=7.67x    frame=12994 fps=184 q=-0.0 size=N/A time=00:09:01.95 bitrate=N/A speed=7.67x    frame=13096 fps=184 q=-0.0 size=N/A time=00:09:06.21 bitrate=N/A speed=7.67x    frame=13192 fps=184 q=-0.0 size=N/A time=00:09:10.21 bitrate=N/A speed=7.68x    frame=13281 fps=184 q=-0.0 size=N/A time=00:09:13.92 bitrate=N/A speed=7.67x    frame=13376 fps=184 q=-0.0 size=N/A time=00:09:17.89 bitrate=N/A speed=7.67x    frame=13477 fps=184 q=-0.0 size=N/A time=00:09:22.10 bitrate=N/A speed=7.67x    frame=13572 fps=184 q=-0.0 size=N/A time=00:09:26.06 bitrate=N/A speed=7.67x    frame=13661 fps=184 q=-0.0 size=N/A time=00:09:29.77 bitrate=N/A speed=7.67x    frame=13756 fps=184 q=-0.0 size=N/A time=00:09:33.73 bitrate=N/A speed=7.67x    frame=13857 fps=184 q=-0.0 size=N/A time=00:09:37.95 bitrate=N/A speed=7.67x    frame=13951 fps=184 q=-0.0 size=N/A time=00:09:41.87 bitrate=N/A speed=7.67x    frame=14050 fps=184 q=-0.0 size=N/A time=00:09:46.00 bitrate=N/A speed=7.67x    frame=14149 fps=184 q=-0.0 size=N/A time=00:09:50.13 bitrate=N/A speed=7.68x    frame=14241 fps=184 q=-0.0 size=N/A time=00:09:53.96 bitrate=N/A speed=7.68x    frame=14335 fps=184 q=-0.0 size=N/A time=00:09:57.88 bitrate=N/A speed=7.67x    frame=14420 fps=184 q=-0.0 size=N/A time=00:10:01.43 bitrate=N/A speed=7.67x    frame=14522 fps=184 q=-0.0 size=N/A time=00:10:05.68 bitrate=N/A speed=7.67x    frame=14619 fps=184 q=-0.0 size=N/A time=00:10:09.73 bitrate=N/A speed=7.67x    frame=14713 fps=184 q=-0.0 size=N/A time=00:10:13.65 bitrate=N/A speed=7.67x    frame=14805 fps=184 q=-0.0 size=N/A time=00:10:17.49 bitrate=N/A speed=7.67x    frame=14903 fps=184 q=-0.0 size=N/A time=00:10:21.57 bitrate=N/A speed=7.67x    frame=15002 fps=184 q=-0.0 size=N/A time=00:10:25.70 bitrate=N/A speed=7.68x    frame=15090 fps=184 q=-0.0 size=N/A time=00:10:29.37 bitrate=N/A speed=7.67x    frame=15191 fps=184 q=-0.0 size=N/A time=00:10:33.59 bitrate=N/A speed=7.68x    frame=15285 fps=184 q=-0.0 size=N/A time=00:10:37.51 bitrate=N/A speed=7.68x    frame=15373 fps=184 q=-0.0 size=N/A time=00:10:41.18 bitrate=N/A speed=7.67x    frame=15471 fps=184 q=-0.0 size=N/A time=00:10:45.26 bitrate=N/A speed=7.67x    frame=15566 fps=184 q=-0.0 size=N/A time=00:10:49.23 bitrate=N/A speed=7.67x    frame=15656 fps=184 q=-0.0 size=N/A time=00:10:52.98 bitrate=N/A speed=7.67x    frame=15744 fps=184 q=-0.0 size=N/A time=00:10:56.65 bitrate=N/A speed=7.67x    frame=15832 fps=184 q=-0.0 size=N/A time=00:11:00.32 bitrate=N/A speed=7.66x    frame=15933 fps=184 q=-0.0 size=N/A time=00:11:04.53 bitrate=N/A speed=7.67x    frame=16031 fps=184 q=-0.0 size=N/A time=00:11:08.62 bitrate=N/A speed=7.67x    frame=16127 fps=184 q=-0.0 size=N/A time=00:11:12.63 bitrate=N/A speed=7.67x    frame=16222 fps=184 q=-0.0 size=N/A time=00:11:16.59 bitrate=N/A speed=7.67x    frame=16305 fps=184 q=-0.0 size=N/A time=00:11:20.05 bitrate=N/A speed=7.66x    frame=16408 fps=184 q=-0.0 size=N/A time=00:11:24.35 bitrate=N/A speed=7.67x    frame=16500 fps=184 q=-0.0 size=N/A time=00:11:28.18 bitrate=N/A speed=7.67x    frame=16596 fps=184 q=-0.0 size=N/A time=00:11:32.19 bitrate=N/A speed=7.67x    frame=16686 fps=184 q=-0.0 size=N/A time=00:11:35.94 bitrate=N/A speed=7.67x    frame=16785 fps=184 q=-0.0 size=N/A time=00:11:40.07 bitrate=N/A speed=7.67x    frame=16877 fps=184 q=-0.0 size=N/A time=00:11:43.91 bitrate=N/A speed=7.67x    frame=16972 fps=184 q=-0.0 size=N/A time=00:11:47.87 bitrate=N/A speed=7.67x    frame=17066 fps=184 q=-0.0 size=N/A time=00:11:51.79 bitrate=N/A speed=7.66x    frame=17159 fps=184 q=-0.0 size=N/A time=00:11:55.67 bitrate=N/A speed=7.66x    frame=17248 fps=184 q=-0.0 size=N/A time=00:11:59.38 bitrate=N/A speed=7.66x    frame=17343 fps=184 q=-0.0 size=N/A time=00:12:03.34 bitrate=N/A speed=7.66x    frame=17438 fps=184 q=-0.0 size=N/A time=00:12:07.30 bitrate=N/A speed=7.66x    frame=17529 fps=184 q=-0.0 size=N/A time=00:12:11.10 bitrate=N/A speed=7.66x    frame=17626 fps=184 q=-0.0 size=N/A time=00:12:15.15 bitrate=N/A speed=7.66x    frame=17722 fps=184 q=-0.0 size=N/A time=00:12:19.15 bitrate=N/A speed=7.66x    frame=17815 fps=184 q=-0.0 size=N/A time=00:12:23.03 bitrate=N/A speed=7.66x    frame=17910 fps=184 q=-0.0 size=N/A time=00:12:26.99 bitrate=N/A speed=7.66x    frame=18000 fps=184 q=-0.0 size=N/A time=00:12:30.75 bitrate=N/A speed=7.66x    frame=18098 fps=184 q=-0.0 size=N/A time=00:12:34.83 bitrate=N/A speed=7.66x    frame=18192 fps=184 q=-0.0 size=N/A time=00:12:38.75 bitrate=N/A speed=7.66x    frame=18278 fps=184 q=-0.0 size=N/A time=00:12:42.34 bitrate=N/A speed=7.66x    frame=18379 fps=184 q=-0.0 size=N/A time=00:12:46.55 bitrate=N/A speed=7.66x    frame=18470 fps=184 q=-0.0 size=N/A time=00:12:50.35 bitrate=N/A speed=7.66x    frame=18567 fps=184 q=-0.0 size=N/A time=00:12:54.39 bitrate=N/A speed=7.66x    frame=18654 fps=184 q=-0.0 size=N/A time=00:12:58.02 bitrate=N/A speed=7.66x    frame=18757 fps=184 q=-0.0 size=N/A time=00:13:02.32 bitrate=N/A speed=7.66x    frame=18854 fps=184 q=-0.0 size=N/A time=00:13:06.36 bitrate=N/A speed=7.66x    frame=18951 fps=184 q=-0.0 size=N/A time=00:13:10.41 bitrate=N/A speed=7.66x    frame=19046 fps=184 q=-0.0 size=N/A time=00:13:14.37 bitrate=N/A speed=7.66x    frame=19135 fps=184 q=-0.0 size=N/A time=00:13:18.08 bitrate=N/A speed=7.66x    frame=19227 fps=184 q=-0.0 size=N/A time=00:13:21.92 bitrate=N/A speed=7.66x    frame=19317 fps=184 q=-0.0 size=N/A time=00:13:25.67 bitrate=N/A speed=7.66x    frame=19400 fps=183 q=-0.0 size=N/A time=00:13:29.14 bitrate=N/A speed=7.65x    frame=19499 fps=183 q=-0.0 size=N/A time=00:13:33.27 bitrate=N/A speed=7.65x    frame=19593 fps=183 q=-0.0 size=N/A time=00:13:37.19 bitrate=N/A speed=7.65x    frame=19688 fps=183 q=-0.0 size=N/A time=00:13:41.15 bitrate=N/A speed=7.65x    frame=19785 fps=183 q=-0.0 size=N/A time=00:13:45.19 bitrate=N/A speed=7.65x    frame=19877 fps=183 q=-0.0 size=N/A time=00:13:49.03 bitrate=N/A speed=7.65x    frame=19970 fps=183 q=-0.0 size=N/A time=00:13:52.91 bitrate=N/A speed=7.65x    frame=20058 fps=183 q=-0.0 size=N/A time=00:13:56.58 bitrate=N/A speed=7.65x    frame=20151 fps=183 q=-0.0 size=N/A time=00:14:00.46 bitrate=N/A speed=7.65x    frame=20241 fps=183 q=-0.0 size=N/A time=00:14:04.21 bitrate=N/A speed=7.65x    frame=20323 fps=183 q=-0.0 size=N/A time=00:14:07.63 bitrate=N/A speed=7.64x    frame=20427 fps=183 q=-0.0 size=N/A time=00:14:11.97 bitrate=N/A speed=7.64x    frame=20522 fps=183 q=-0.0 size=N/A time=00:14:15.93 bitrate=N/A speed=7.64x    frame=20611 fps=183 q=-0.0 size=N/A time=00:14:19.65 bitrate=N/A speed=7.64x    frame=20700 fps=183 q=-0.0 size=N/A time=00:14:23.36 bitrate=N/A speed=7.64x    frame=20796 fps=183 q=-0.0 size=N/A time=00:14:27.36 bitrate=N/A speed=7.64x    frame=20884 fps=183 q=-0.0 size=N/A time=00:14:31.03 bitrate=N/A speed=7.64x    frame=20988 fps=183 q=-0.0 size=N/A time=00:14:35.37 bitrate=N/A speed=7.64x    frame=21077 fps=183 q=-0.0 size=N/A time=00:14:39.08 bitrate=N/A speed=7.64x    frame=21165 fps=183 q=-0.0 size=N/A time=00:14:42.75 bitrate=N/A speed=7.64x    frame=21263 fps=183 q=-0.0 size=N/A time=00:14:46.84 bitrate=N/A speed=7.64x    frame=21349 fps=183 q=-0.0 size=N/A time=00:14:50.43 bitrate=N/A speed=7.64x    frame=21446 fps=183 q=-0.0 size=N/A time=00:14:54.47 bitrate=N/A speed=7.64x    frame=21541 fps=183 q=-0.0 size=N/A time=00:14:58.43 bitrate=N/A speed=7.64x    frame=21640 fps=183 q=-0.0 size=N/A time=00:15:02.56 bitrate=N/A speed=7.64x    frame=21739 fps=183 q=-0.0 size=N/A time=00:15:06.69 bitrate=N/A speed=7.64x    frame=21825 fps=183 q=-0.0 size=N/A time=00:15:10.28 bitrate=N/A speed=7.64x    frame=21925 fps=183 q=-0.0 size=N/A time=00:15:14.45 bitrate=N/A speed=7.64x    frame=22026 fps=183 q=-0.0 size=N/A time=00:15:18.66 bitrate=N/A speed=7.64x    frame=22112 fps=183 q=-0.0 size=N/A time=00:15:22.25 bitrate=N/A speed=7.64x    frame=22211 fps=183 q=-0.0 size=N/A time=00:15:26.38 bitrate=N/A speed=7.64x    frame=22305 fps=183 q=-0.0 size=N/A time=00:15:30.30 bitrate=N/A speed=7.64x    frame=22395 fps=183 q=-0.0 size=N/A time=00:15:34.05 bitrate=N/A speed=7.64x    frame=22474 fps=183 q=-0.0 size=N/A time=00:15:37.35 bitrate=N/A speed=7.63x    frame=22561 fps=183 q=-0.0 size=N/A time=00:15:40.98 bitrate=N/A speed=7.63x    frame=22655 fps=183 q=-0.0 size=N/A time=00:15:44.90 bitrate=N/A speed=7.63x    frame=22738 fps=183 q=-0.0 size=N/A time=00:15:48.36 bitrate=N/A speed=7.63x    frame=22829 fps=183 q=-0.0 size=N/A time=00:15:52.15 bitrate=N/A speed=7.62x    frame=22909 fps=183 q=-0.0 size=N/A time=00:15:55.49 bitrate=N/A speed=7.62x    frame=23002 fps=183 q=-0.0 size=N/A time=00:15:59.37 bitrate=N/A speed=7.62x    frame=23092 fps=183 q=-0.0 size=N/A time=00:16:03.12 bitrate=N/A speed=7.62x    frame=23186 fps=183 q=-0.0 size=N/A time=00:16:07.04 bitrate=N/A speed=7.62x    frame=23280 fps=183 q=-0.0 size=N/A time=00:16:10.97 bitrate=N/A speed=7.62x    frame=23379 fps=183 q=-0.0 size=N/A time=00:16:15.09 bitrate=N/A speed=7.62x    frame=23475 fps=183 q=-0.0 size=N/A time=00:16:19.10 bitrate=N/A speed=7.62x    frame=23569 fps=183 q=-0.0 size=N/A time=00:16:23.02 bitrate=N/A speed=7.62x    frame=23661 fps=183 q=-0.0 size=N/A time=00:16:26.86 bitrate=N/A speed=7.62x    frame=23761 fps=183 q=-0.0 size=N/A time=00:16:31.03 bitrate=N/A speed=7.62x    frame=23855 fps=183 q=-0.0 size=N/A time=00:16:34.95 bitrate=N/A speed=7.62x    frame=23954 fps=183 q=-0.0 size=N/A time=00:16:39.08 bitrate=N/A speed=7.62x    frame=24052 fps=183 q=-0.0 size=N/A time=00:16:43.16 bitrate=N/A speed=7.62x    frame=24148 fps=183 q=-0.0 size=N/A time=00:16:47.17 bitrate=N/A speed=7.62x    frame=24239 fps=183 q=-0.0 size=N/A time=00:16:50.96 bitrate=N/A speed=7.62x    frame=24332 fps=183 q=-0.0 size=N/A time=00:16:54.84 bitrate=N/A speed=7.62x    frame=24417 fps=183 q=-0.0 size=N/A time=00:16:58.39 bitrate=N/A speed=7.62x    frame=24516 fps=183 q=-0.0 size=N/A time=00:17:02.52 bitrate=N/A speed=7.62x    frame=24609 fps=183 q=-0.0 size=N/A time=00:17:06.40 bitrate=N/A speed=7.62x    frame=24700 fps=183 q=-0.0 size=N/A time=00:17:10.19 bitrate=N/A speed=7.62x    frame=24789 fps=183 q=-0.0 size=N/A time=00:17:13.90 bitrate=N/A speed=7.62x    frame=24884 fps=183 q=-0.0 size=N/A time=00:17:17.87 bitrate=N/A speed=7.62x    frame=24970 fps=183 q=-0.0 size=N/A time=00:17:21.45 bitrate=N/A speed=7.62x    frame=25072 fps=183 q=-0.0 size=N/A time=00:17:25.71 bitrate=N/A speed=7.62x    frame=25171 fps=183 q=-0.0 size=N/A time=00:17:29.84 bitrate=N/A speed=7.62x    frame=25259 fps=183 q=-0.0 size=N/A time=00:17:33.51 bitrate=N/A speed=7.62x    frame=25347 fps=183 q=-0.0 size=N/A time=00:17:37.18 bitrate=N/A speed=7.62x    frame=25452 fps=183 q=-0.0 size=N/A time=00:17:41.56 bitrate=N/A speed=7.62x    frame=25548 fps=183 q=-0.0 size=N/A time=00:17:45.56 bitrate=N/A speed=7.62x    frame=25634 fps=183 q=-0.0 size=N/A time=00:17:49.15 bitrate=N/A speed=7.62x    frame=25741 fps=183 q=-0.0 size=N/A time=00:17:53.61 bitrate=N/A speed=7.62x    frame=25834 fps=183 q=-0.0 size=N/A time=00:17:57.49 bitrate=N/A speed=7.62x    frame=25908 fps=183 q=-0.0 size=N/A time=00:18:00.57 bitrate=N/A speed=7.62x    frame=26009 fps=183 q=-0.0 size=N/A time=00:18:04.79 bitrate=N/A speed=7.62x    frame=26097 fps=183 q=-0.0 size=N/A time=00:18:08.46 bitrate=N/A speed=7.62x    frame=26194 fps=183 q=-0.0 size=N/A time=00:18:12.50 bitrate=N/A speed=7.62x    frame=26291 fps=183 q=-0.0 size=N/A time=00:18:16.55 bitrate=N/A speed=7.62x    frame=26386 fps=183 q=-0.0 size=N/A time=00:18:20.51 bitrate=N/A speed=7.62x    frame=26486 fps=183 q=-0.0 size=N/A time=00:18:24.68 bitrate=N/A speed=7.62x    frame=26573 fps=183 q=-0.0 size=N/A time=00:18:28.31 bitrate=N/A speed=7.62x    frame=26673 fps=183 q=-0.0 size=N/A time=00:18:32.48 bitrate=N/A speed=7.62x    frame=26766 fps=183 q=-0.0 size=N/A time=00:18:36.36 bitrate=N/A speed=7.62x    frame=26873 fps=183 q=-0.0 size=N/A time=00:18:40.82 bitrate=N/A speed=7.62x    frame=26971 fps=183 q=-0.0 size=N/A time=00:18:44.91 bitrate=N/A speed=7.62x    frame=27069 fps=183 q=-0.0 size=N/A time=00:18:49.00 bitrate=N/A speed=7.62x    frame=27166 fps=183 q=-0.0 size=N/A time=00:18:53.04 bitrate=N/A speed=7.62x    frame=27260 fps=183 q=-0.0 size=N/A time=00:18:56.96 bitrate=N/A speed=7.63x    frame=27353 fps=183 q=-0.0 size=N/A time=00:19:00.84 bitrate=N/A speed=7.62x    frame=27445 fps=183 q=-0.0 size=N/A time=00:19:04.68 bitrate=N/A speed=7.62x    frame=27543 fps=183 q=-0.0 size=N/A time=00:19:08.77 bitrate=N/A speed=7.63x    frame=27641 fps=183 q=-0.0 size=N/A time=00:19:12.86 bitrate=N/A speed=7.63x    frame=27739 fps=183 q=-0.0 size=N/A time=00:19:16.94 bitrate=N/A speed=7.63x    frame=27833 fps=183 q=-0.0 size=N/A time=00:19:20.86 bitrate=N/A speed=7.63x    frame=27930 fps=183 q=-0.0 size=N/A time=00:19:24.91 bitrate=N/A speed=7.63x    frame=28031 fps=183 q=-0.0 size=N/A time=00:19:29.12 bitrate=N/A speed=7.63x    frame=28120 fps=183 q=-0.0 size=N/A time=00:19:32.83 bitrate=N/A speed=7.63x    frame=28210 fps=183 q=-0.0 size=N/A time=00:19:36.59 bitrate=N/A speed=7.63x    frame=28301 fps=183 q=-0.0 size=N/A time=00:19:40.38 bitrate=N/A speed=7.63x    frame=28392 fps=183 q=-0.0 size=N/A time=00:19:44.18 bitrate=N/A speed=7.63x    frame=28476 fps=183 q=-0.0 size=N/A time=00:19:47.68 bitrate=N/A speed=7.62x    frame=28574 fps=183 q=-0.0 size=N/A time=00:19:51.77 bitrate=N/A speed=7.62x    frame=28666 fps=183 q=-0.0 size=N/A time=00:19:55.61 bitrate=N/A speed=7.62x    frame=28764 fps=183 q=-0.0 size=N/A time=00:19:59.69 bitrate=N/A speed=7.62x    frame=28855 fps=183 q=-0.0 size=N/A time=00:20:03.49 bitrate=N/A speed=7.62x    frame=28963 fps=183 q=-0.0 size=N/A time=00:20:07.99 bitrate=N/A speed=7.63x    frame=29062 fps=183 q=-0.0 size=N/A time=00:20:12.12 bitrate=N/A speed=7.63x    frame=29153 fps=183 q=-0.0 size=N/A time=00:20:15.92 bitrate=N/A speed=7.63x    frame=29238 fps=183 q=-0.0 size=N/A time=00:20:19.46 bitrate=N/A speed=7.62x    frame=29327 fps=183 q=-0.0 size=N/A time=00:20:23.18 bitrate=N/A speed=7.62x    frame=29419 fps=183 q=-0.0 size=N/A time=00:20:27.01 bitrate=N/A speed=7.62x    frame=29509 fps=183 q=-0.0 size=N/A time=00:20:30.77 bitrate=N/A speed=7.62x    frame=29608 fps=183 q=-0.0 size=N/A time=00:20:34.90 bitrate=N/A speed=7.62x    frame=29698 fps=183 q=-0.0 size=N/A time=00:20:38.65 bitrate=N/A speed=7.62x    frame=29793 fps=183 q=-0.0 size=N/A time=00:20:42.61 bitrate=N/A speed=7.62x    frame=29884 fps=183 q=-0.0 size=N/A time=00:20:46.41 bitrate=N/A speed=7.62x    frame=29980 fps=183 q=-0.0 size=N/A time=00:20:50.41 bitrate=N/A speed=7.62x    frame=30070 fps=183 q=-0.0 size=N/A time=00:20:54.16 bitrate=N/A speed=7.62x    frame=30160 fps=183 q=-0.0 size=N/A time=00:20:57.92 bitrate=N/A speed=7.62x    frame=30268 fps=183 q=-0.0 size=N/A time=00:21:02.42 bitrate=N/A speed=7.62x    frame=30359 fps=183 q=-0.0 size=N/A time=00:21:06.22 bitrate=N/A speed=7.62x    frame=30449 fps=183 q=-0.0 size=N/A time=00:21:09.97 bitrate=N/A speed=7.62x    frame=30531 fps=183 q=-0.0 size=N/A time=00:21:13.39 bitrate=N/A speed=7.62x    frame=30624 fps=183 q=-0.0 size=N/A time=00:21:17.27 bitrate=N/A speed=7.62x    frame=30731 fps=183 q=-0.0 size=N/A time=00:21:21.73 bitrate=N/A speed=7.62x    frame=30827 fps=183 q=-0.0 size=N/A time=00:21:25.74 bitrate=N/A speed=7.62x    frame=30927 fps=183 q=-0.0 size=N/A time=00:21:29.91 bitrate=N/A speed=7.62x    frame=31018 fps=183 q=-0.0 size=N/A time=00:21:33.70 bitrate=N/A speed=7.62x    frame=31117 fps=183 q=-0.0 size=N/A time=00:21:37.83 bitrate=N/A speed=7.62x    frame=31206 fps=183 q=-0.0 size=N/A time=00:21:41.55 bitrate=N/A speed=7.62x    frame=31313 fps=183 q=-0.0 size=N/A time=00:21:46.01 bitrate=N/A speed=7.62x    frame=31408 fps=183 q=-0.0 size=N/A time=00:21:49.97 bitrate=N/A speed=7.63x    frame=31496 fps=183 q=-0.0 size=N/A time=00:21:53.64 bitrate=N/A speed=7.62x    frame=31594 fps=183 q=-0.0 size=N/A time=00:21:57.73 bitrate=N/A speed=7.62x    frame=31691 fps=183 q=-0.0 size=N/A time=00:22:01.77 bitrate=N/A speed=7.63x    frame=31795 fps=183 q=-0.0 size=N/A time=00:22:06.11 bitrate=N/A speed=7.63x    frame=31890 fps=183 q=-0.0 size=N/A time=00:22:10.07 bitrate=N/A speed=7.63x    frame=31981 fps=183 q=-0.0 size=N/A time=00:22:13.87 bitrate=N/A speed=7.63x    frame=32082 fps=183 q=-0.0 size=N/A time=00:22:18.08 bitrate=N/A speed=7.63x    frame=32182 fps=183 q=-0.0 size=N/A time=00:22:22.25 bitrate=N/A speed=7.63x    frame=32275 fps=183 q=-0.0 size=N/A time=00:22:26.13 bitrate=N/A speed=7.63x    frame=32364 fps=183 q=-0.0 size=N/A time=00:22:29.84 bitrate=N/A speed=7.63x    frame=32463 fps=183 q=-0.0 size=N/A time=00:22:33.97 bitrate=N/A speed=7.63x    frame=32553 fps=183 q=-0.0 size=N/A time=00:22:37.73 bitrate=N/A speed=7.63x    frame=32648 fps=183 q=-0.0 size=N/A time=00:22:41.69 bitrate=N/A speed=7.63x    frame=32733 fps=183 q=-0.0 size=N/A time=00:22:45.23 bitrate=N/A speed=7.63x    frame=32837 fps=183 q=-0.0 size=N/A time=00:22:49.57 bitrate=N/A speed=7.63x    frame=32933 fps=183 q=-0.0 size=N/A time=00:22:53.58 bitrate=N/A speed=7.63x    frame=33028 fps=183 q=-0.0 size=N/A time=00:22:57.54 bitrate=N/A speed=7.63x    frame=33119 fps=183 q=-0.0 size=N/A time=00:23:01.33 bitrate=N/A speed=7.63x    frame=33219 fps=183 q=-0.0 size=N/A time=00:23:05.50 bitrate=N/A speed=7.63x    frame=33318 fps=183 q=-0.0 size=N/A time=00:23:09.63 bitrate=N/A speed=7.63x    frame=33410 fps=183 q=-0.0 size=N/A time=00:23:13.47 bitrate=N/A speed=7.63x    frame=33501 fps=183 q=-0.0 size=N/A time=00:23:17.27 bitrate=N/A speed=7.63x    frame=33600 fps=183 q=-0.0 size=N/A time=00:23:21.40 bitrate=N/A speed=7.63x    frame=33695 fps=183 q=-0.0 size=N/A time=00:23:25.36 bitrate=N/A speed=7.63x    frame=33793 fps=183 q=-0.0 size=N/A time=00:23:29.44 bitrate=N/A speed=7.63x    frame=33894 fps=183 q=-0.0 size=N/A time=00:23:33.66 bitrate=N/A speed=7.63x    frame=33983 fps=183 q=-0.0 size=N/A time=00:23:37.37 bitrate=N/A speed=7.63x    [Parsed_ssim_10 @ 0000014d59fd0280] SSIM Y:0.990059 (20.025759) U:0.993911 (22.154413) V:0.994693 (22.751578) All:0.991473 (20.692246)
[out#0/null @ 0000014d5a6ca880] video:14629KiB audio:266448KiB subtitle:0KiB other streams:0KiB global headers:0KiB muxing overhead: unknown
frame=34046 fps=183 q=-0.0 Lsize=N/A time=00:23:40.00 bitrate=N/A speed=7.63x    
